<svg id="svg" version="1.1" xmlns="http://www.w3.org/2000/svg" xmlns:xlink="http://www.w3.org/1999/xlink" width="400" height="400" viewBox="0, 0, 400,400"><g id="svgg"><path id="path0" d="M222.600 29.056 C 154.115 34.269,87.428 64.912,66.130 100.954 C 58.372 114.084,57.235 132.900,63.449 145.315 C 70.105 158.611,79.402 161.278,85.200 151.556 C 95.987 133.469,109.311 119.277,127.404 106.605 L 131.800 103.526 132.082 106.021 C 132.297 107.921,132.707 109.033,133.800 110.679 C 137.062 115.591,137.205 117.573,135.165 129.574 C 134.159 135.495,96.214 326.628,93.747 338.200 C 89.864 356.416,91.135 364.320,98.721 369.137 C 107.258 374.557,129.340 371.571,148.497 362.407 C 155.276 359.164,156.867 355.265,154.747 347.089 C 153.132 340.862,152.868 342.490,167.000 271.455 L 177.714 217.605 178.957 218.366 C 182.674 220.643,196.120 221.652,203.400 220.201 L 204.600 219.962 209.589 231.281 C 245.817 313.473,280.996 349.617,317.517 342.171 C 336.798 338.240,360.438 318.966,369.404 299.865 C 375.120 287.690,374.588 271.848,368.326 267.703 C 363.852 264.743,358.691 266.253,353.934 271.913 C 345.474 281.978,336.041 289.029,328.723 290.757 C 313.774 294.286,292.461 270.057,268.592 222.400 C 262.274 209.785,257.152 198.679,257.509 198.368 C 257.669 198.228,260.950 196.616,264.800 194.785 C 323.148 167.037,345.707 141.759,347.070 102.600 C 348.553 59.979,322.606 35.956,268.400 29.764 C 262.898 29.135,228.535 28.604,222.600 29.056 M266.123 38.569 C 315.052 43.935,338.240 63.647,338.152 99.800 C 338.059 137.755,314.878 162.159,251.699 190.816 C 245.889 193.451,245.225 193.851,245.454 194.582 C 246.500 197.918,259.000 224.191,264.507 234.626 C 290.094 283.110,310.969 303.608,330.670 299.594 C 339.585 297.778,350.957 289.740,360.000 278.864 C 363.599 274.536,363.412 274.589,363.959 277.733 C 365.931 289.060,360.753 300.869,348.406 313.200 C 302.792 358.756,262.309 330.216,213.932 218.400 C 211.382 212.507,209.859 209.448,209.519 209.540 C 199.515 212.242,183.591 212.805,183.601 210.456 C 183.606 209.235,186.299 200.013,187.506 197.080 C 195.756 177.044,210.134 170.169,233.200 175.231 C 235.393 175.712,235.420 175.706,241.400 173.430 C 278.396 159.348,297.525 137.494,298.672 107.999 C 299.951 75.086,263.877 57.520,209.600 64.626 C 156.703 71.551,104.069 103.217,79.993 142.600 C 76.220 148.772,76.591 148.430,75.296 146.931 C 68.886 139.511,66.549 126.203,69.767 115.440 C 80.731 78.769,152.554 42.825,224.800 37.855 C 230.847 37.439,260.491 37.951,266.123 38.569 M245.984 72.614 C 273.147 75.977,289.785 88.594,289.745 105.800 C 289.686 131.536,272.515 151.556,239.530 164.345 C 234.716 166.211,234.583 166.226,230.265 165.400 C 212.742 162.047,195.718 167.899,186.247 180.531 C 185.451 181.592,184.800 182.323,184.800 182.154 C 184.800 181.984,187.582 167.975,190.982 151.023 C 199.960 106.253,200.143 104.233,195.925 96.319 C 190.220 85.616,181.021 83.784,159.200 89.007 C 155.060 89.997,170.147 83.852,179.200 80.860 C 200.903 73.686,227.811 70.364,245.984 72.614 M182.000 95.692 C 187.880 97.472,190.647 104.144,189.215 113.090 C 188.941 114.801,183.151 144.100,176.349 178.200 C 141.562 352.571,143.665 340.722,145.960 349.364 C 146.422 351.104,146.800 352.653,146.800 352.806 C 146.800 353.228,139.566 356.490,134.600 358.308 C 125.876 361.502,117.903 362.969,110.522 362.738 C 99.975 362.409,98.653 358.956,102.355 341.400 C 104.716 330.207,143.469 134.820,144.166 130.600 C 146.343 117.416,145.940 112.554,142.206 106.929 L 140.783 104.787 141.891 104.364 C 160.864 97.127,175.960 93.863,182.000 95.692 " stroke="none" fill="#040404" fill-rule="evenodd"></path><path id="path1" d="M231.200 37.872 C 191.792 39.355,154.561 49.331,119.860 67.705 C 80.501 88.545,63.167 112.228,69.872 136.000 C 70.951 139.828,75.854 148.415,76.493 147.597 C 76.577 147.489,77.942 145.303,79.525 142.741 C 105.120 101.310,157.803 70.405,214.200 63.738 C 261.477 58.150,297.429 74.783,299.063 103.000 C 300.804 133.067,280.924 158.227,244.000 172.687 C 234.844 176.273,235.475 176.144,231.568 175.223 C 209.965 170.131,194.450 178.481,187.019 199.200 C 185.426 203.643,183.883 210.043,184.304 210.464 C 186.105 212.265,195.700 212.215,204.400 210.358 C 206.710 209.866,209.004 209.448,209.497 209.431 C 210.294 209.403,210.858 210.476,214.530 219.000 C 262.165 329.576,303.016 358.292,348.217 312.977 C 360.189 300.976,365.229 289.756,363.796 278.300 C 363.426 275.349,363.534 275.307,359.456 279.981 C 330.340 313.355,306.139 305.861,274.907 253.800 C 265.061 237.386,243.909 194.707,245.065 193.585 C 245.249 193.406,247.078 192.525,249.128 191.625 C 313.233 163.519,337.787 137.975,337.778 99.400 C 337.768 56.113,301.583 35.222,231.200 37.872 M172.653 95.615 C 166.662 96.555,158.059 98.983,147.523 102.705 L 141.246 104.923 142.485 106.724 C 146.217 112.149,146.644 117.712,144.361 131.200 C 143.426 136.727,106.343 323.872,103.582 337.000 C 98.537 360.986,99.840 363.860,115.117 362.447 C 124.115 361.615,143.620 355.713,146.330 353.003 C 146.408 352.925,146.069 351.120,145.577 348.991 C 143.533 340.143,144.515 334.738,182.263 147.200 C 187.510 121.131,188.946 113.311,189.101 109.969 C 189.624 98.679,184.061 93.824,172.653 95.615 " stroke="none" fill="#fc0404" fill-rule="evenodd"></path><path id="path2" d="M228.500 37.876 C 228.885 37.976,229.515 37.976,229.900 37.876 C 230.285 37.775,229.970 37.693,229.200 37.693 C 228.430 37.693,228.115 37.775,228.500 37.876 M227.105 63.083 C 227.602 63.179,228.322 63.175,228.705 63.075 C 229.087 62.975,228.680 62.896,227.800 62.901 C 226.920 62.905,226.607 62.987,227.105 63.083 M238.900 63.076 C 239.285 63.176,239.915 63.176,240.300 63.076 C 240.685 62.975,240.370 62.893,239.600 62.893 C 238.830 62.893,238.515 62.975,238.900 63.076 M84.581 92.100 L 83.000 93.800 84.700 92.219 C 85.635 91.349,86.400 90.584,86.400 90.519 C 86.400 90.216,86.052 90.519,84.581 92.100 M338.131 99.400 C 338.133 100.940,338.205 101.521,338.292 100.691 C 338.379 99.861,338.377 98.601,338.289 97.891 C 338.200 97.181,338.129 97.860,338.131 99.400 M298.920 105.200 C 298.920 106.410,298.995 106.905,299.087 106.300 C 299.178 105.695,299.178 104.705,299.087 104.100 C 298.995 103.495,298.920 103.990,298.920 105.200 M354.581 284.900 L 353.000 286.600 354.700 285.019 C 356.281 283.548,356.584 283.200,356.281 283.200 C 356.216 283.200,355.451 283.965,354.581 284.900 M299.000 286.400 C 300.306 287.720,301.465 288.800,301.575 288.800 C 301.685 288.800,300.706 287.720,299.400 286.400 C 298.094 285.080,296.935 284.000,296.825 284.000 C 296.715 284.000,297.694 285.080,299.000 286.400 M271.183 315.300 C 272.164 316.345,273.019 317.200,273.083 317.200 C 273.384 317.200,273.066 316.841,271.300 315.183 L 269.400 313.400 271.183 315.300 " stroke="none" fill="#9b0404" fill-rule="evenodd"></path><path id="path3" d="M230.307 63.090 C 231.026 63.179,232.106 63.177,232.707 63.086 C 233.308 62.995,232.720 62.922,231.400 62.924 C 230.080 62.926,229.588 63.001,230.307 63.090 M235.900 63.082 C 236.395 63.178,237.205 63.178,237.700 63.082 C 238.195 62.987,237.790 62.909,236.800 62.909 C 235.810 62.909,235.405 62.987,235.900 63.082 M288.600 81.200 C 289.683 82.300,290.660 83.200,290.770 83.200 C 290.880 83.200,290.083 82.300,289.000 81.200 C 287.917 80.100,286.940 79.200,286.830 79.200 C 286.720 79.200,287.517 80.100,288.600 81.200 M95.775 121.700 L 94.600 123.000 95.900 121.825 C 97.112 120.730,97.384 120.400,97.075 120.400 C 97.006 120.400,96.421 120.985,95.775 121.700 M316.788 150.700 L 314.200 153.400 316.900 150.812 C 318.385 149.388,319.600 148.173,319.600 148.112 C 319.600 147.817,319.193 148.192,316.788 150.700 M279.978 150.300 L 278.600 151.800 280.100 150.422 C 281.496 149.138,281.784 148.800,281.478 148.800 C 281.412 148.800,280.737 149.475,279.978 150.300 M348.189 313.300 L 345.400 316.200 348.300 313.411 C 350.994 310.820,351.383 310.400,351.089 310.400 C 351.028 310.400,349.723 311.705,348.189 313.300 M273.200 317.325 C 273.200 317.394,273.785 317.979,274.500 318.625 L 275.800 319.800 274.625 318.500 C 273.530 317.288,273.200 317.016,273.200 317.325 " stroke="none" fill="#5b0404" fill-rule="evenodd"></path><path id="path4" d="M231.305 37.887 C 231.914 37.979,232.814 37.977,233.305 37.882 C 233.797 37.787,233.300 37.711,232.200 37.714 C 231.100 37.717,230.697 37.795,231.305 37.887 M249.300 37.887 C 249.905 37.978,250.895 37.978,251.500 37.887 C 252.105 37.795,251.610 37.720,250.400 37.720 C 249.190 37.720,248.695 37.795,249.300 37.887 M323.200 60.600 C 323.946 61.370,324.647 62.000,324.757 62.000 C 324.867 62.000,324.346 61.370,323.600 60.600 C 322.854 59.830,322.153 59.200,322.043 59.200 C 321.933 59.200,322.454 59.830,323.200 60.600 M224.305 63.083 C 224.802 63.179,225.522 63.175,225.905 63.075 C 226.287 62.975,225.880 62.896,225.000 62.901 C 224.120 62.905,223.807 62.987,224.305 63.083 M189.320 108.800 C 189.320 110.010,189.395 110.505,189.487 109.900 C 189.578 109.295,189.578 108.305,189.487 107.700 C 189.395 107.095,189.320 107.590,189.320 108.800 M298.893 108.400 C 298.893 109.170,298.975 109.485,299.076 109.100 C 299.176 108.715,299.176 108.085,299.076 107.700 C 298.975 107.315,298.893 107.630,298.893 108.400 M99.792 117.300 L 96.200 121.000 99.900 117.408 C 101.935 115.433,103.600 113.768,103.600 113.708 C 103.600 113.418,103.128 113.864,99.792 117.300 M145.714 117.800 C 145.717 118.900,145.795 119.303,145.887 118.695 C 145.979 118.086,145.977 117.186,145.882 116.695 C 145.787 116.203,145.711 116.700,145.714 117.800 M364.093 283.600 C 364.093 284.370,364.175 284.685,364.276 284.300 C 364.376 283.915,364.376 283.285,364.276 282.900 C 364.175 282.515,364.093 282.830,364.093 283.600 " stroke="none" fill="#c70404" fill-rule="evenodd"></path></g></svg>